<?xml version="1.0" encoding="UTF-8" standalone="no"?>
<!-- Created with Inkscape (http://www.inkscape.org/) -->

<svg
   xmlns:dc="http://purl.org/dc/elements/1.1/"
   xmlns:cc="http://creativecommons.org/ns#"
   xmlns:rdf="http://www.w3.org/1999/02/22-rdf-syntax-ns#"
   xmlns:svg="http://www.w3.org/2000/svg"
   xmlns="http://www.w3.org/2000/svg"
   xmlns:sodipodi="http://sodipodi.sourceforge.net/DTD/sodipodi-0.dtd"
   xmlns:inkscape="http://www.inkscape.org/namespaces/inkscape"
   width="640"
   height="640"
   id="svg2"
   version="1.1"
   inkscape:version="0.48.3.1 r9886"
   sodipodi:docname="Nouveau document 1">
  <defs
     id="defs4" />
  <sodipodi:namedview
     id="base"
     pagecolor="#000000"
     bordercolor="#666666"
     borderopacity="1.0"
     inkscape:pageopacity="1"
     inkscape:pageshadow="2"
     inkscape:zoom="1.4142136"
     inkscape:cx="278.20256"
     inkscape:cy="504.43381"
     inkscape:document-units="px"
     inkscape:current-layer="layer1"
     showgrid="true"
     inkscape:snap-global="false"
     inkscape:window-width="1024"
     inkscape:window-height="653"
     inkscape:window-x="0"
     inkscape:window-y="218"
     inkscape:window-maximized="1">
    <inkscape:grid
       type="xygrid"
       id="grid2985"
       empspacing="4"
       visible="true"
       enabled="true"
       snapvisiblegridlinesonly="true"
       spacingx="16px"
       spacingy="16px" />
  </sodipodi:namedview>
  <metadata
     id="metadata7">
    <rdf:RDF>
      <cc:Work
         rdf:about="">
        <dc:format>image/svg+xml</dc:format>
        <dc:type
           rdf:resource="http://purl.org/dc/dcmitype/StillImage" />
        <dc:title></dc:title>
      </cc:Work>
    </rdf:RDF>
  </metadata>
  <g
     inkscape:label="Calque 1"
     inkscape:groupmode="layer"
     id="layer1"
     transform="translate(0,-412.36218)">
    <g
       id="g3761">
      <path
         transform="matrix(0.85636894,0,0,0.8618932,-50.211418,-79.138557)"
         d="m 128,608 a 32,32 0 1 1 -64,0 32,32 0 1 1 64,0 z"
         sodipodi:ry="32"
         sodipodi:rx="32"
         sodipodi:cy="608"
         sodipodi:cx="96"
         id="path2987"
         style="opacity:0.54230766;fill:#ce0000;fill-opacity:1;stroke:none"
         sodipodi:type="arc" />
      <text
         sodipodi:linespacing="125%"
         id="text3757"
         y="459.8067"
         x="18.738331"
         style="font-size:40px;font-style:normal;font-weight:normal;line-height:125%;letter-spacing:0px;word-spacing:0px;fill:#000000;fill-opacity:1;stroke:none;font-family:Sans"
         xml:space="preserve"><tspan
           y="459.8067"
           x="18.738331"
           id="tspan3759"
           sodipodi:role="line">B</tspan></text>
    </g>
    <g
       id="g3766"
       transform="translate(62.932504,0)">
      <path
         sodipodi:type="arc"
         style="opacity:0.54230765999999997;fill:#00ff00;fill-opacity:1;stroke:none"
         id="path3768"
         sodipodi:cx="96"
         sodipodi:cy="608"
         sodipodi:rx="32"
         sodipodi:ry="32"
         d="m 128,608 c 0,17.67311 -14.32689,32 -32,32 -17.673112,0 -32,-14.32689 -32,-32 0,-17.67311 14.326888,-32 32,-32 17.67311,0 32,14.32689 32,32 z"
         transform="matrix(0.85636894,0,0,0.8618932,-50.211418,-79.138557)" />
      <text
         xml:space="preserve"
         style="font-size:40px;font-style:normal;font-weight:normal;line-height:125%;letter-spacing:0px;word-spacing:0px;fill:#000000;fill-opacity:1;stroke:none;font-family:Sans"
         x="18.738331"
         y="459.8067"
         id="text3770"
         sodipodi:linespacing="125%"><tspan
           sodipodi:role="line"
           id="tspan3772"
           x="18.738331"
           y="459.8067">R</tspan></text>
    </g>
    <g
       transform="translate(127.98633,0)"
       id="g3774">
      <path
         transform="matrix(0.85636894,0,0,0.8618932,-50.211418,-79.138557)"
         d="m 128,608 c 0,17.67311 -14.32689,32 -32,32 -17.673112,0 -32,-14.32689 -32,-32 0,-17.67311 14.326888,-32 32,-32 17.67311,0 32,14.32689 32,32 z"
         sodipodi:ry="32"
         sodipodi:rx="32"
         sodipodi:cy="608"
         sodipodi:cx="96"
         id="path3776"
         style="opacity:0.54230765999999997;fill:#00ffff;fill-opacity:1;stroke:none"
         sodipodi:type="arc" />
      <text
         sodipodi:linespacing="125%"
         id="text3778"
         y="459.62585"
         x="17.634644"
         style="font-size:37.92961121px;font-style:normal;font-weight:normal;line-height:125%;letter-spacing:0px;word-spacing:0px;fill:#000000;fill-opacity:1;stroke:none;font-family:Sans"
         xml:space="preserve"><tspan
           y="459.62585"
           x="17.634644"
           id="tspan3780"
           sodipodi:role="line">V</tspan></text>
    </g>
    <g
       transform="translate(192.33304,0)"
       id="g3782">
      <path
         transform="matrix(0.85636894,0,0,0.8618932,-50.211418,-79.138557)"
         d="m 128,608 c 0,17.67311 -14.32689,32 -32,32 -17.673112,0 -32,-14.32689 -32,-32 0,-17.67311 14.326888,-32 32,-32 17.67311,0 32,14.32689 32,32 z"
         sodipodi:ry="32"
         sodipodi:rx="32"
         sodipodi:cy="608"
         sodipodi:cx="96"
         id="path3784"
         style="opacity:0.54230765999999997;fill:#0000ff;fill-opacity:1;stroke:none"
         sodipodi:type="arc" />
      <text
         sodipodi:linespacing="125%"
         id="text3786"
         y="459.8067"
         x="15.202797"
         style="font-size:40px;font-style:normal;font-weight:normal;line-height:125%;letter-spacing:0px;word-spacing:0px;fill:#000000;fill-opacity:1;stroke:none;font-family:Sans"
         xml:space="preserve"><tspan
           y="459.8067"
           x="15.202797"
           id="tspan3788"
           sodipodi:role="line">G</tspan></text>
    </g>
    <g
       id="g3790"
       transform="translate(254.55844,0)">
      <path
         sodipodi:type="arc"
         style="opacity:0.54230766;fill:#ff6600;fill-opacity:1;stroke:none"
         id="path3792"
         sodipodi:cx="96"
         sodipodi:cy="608"
         sodipodi:rx="32"
         sodipodi:ry="32"
         d="m 128,608 a 32,32 0 1 1 -64,0 32,32 0 1 1 64,0 z"
         transform="matrix(0.85636894,0,0,0.8618932,-48.090098,-79.138557)" />
      <text
         xml:space="preserve"
         style="font-size:37.58497238px;font-style:normal;font-weight:normal;line-height:125%;letter-spacing:0px;word-spacing:0px;fill:#000000;fill-opacity:1;stroke:none;font-family:Sans"
         x="21.725952"
         y="458.42667"
         id="text3794"
         sodipodi:linespacing="125%"><tspan
           sodipodi:role="line"
           id="tspan3796"
           x="21.725952"
           y="458.42667">S</tspan></text>
    </g>
    <g
       transform="translate(318.19805,0)"
       id="g3798">
      <path
         transform="matrix(0.85636894,0,0,0.8618932,-48.090098,-79.138557)"
         d="m 128,608 c 0,17.67311 -14.32689,32 -32,32 -17.673112,0 -32,-14.32689 -32,-32 0,-17.67311 14.326888,-32 32,-32 17.67311,0 32,14.32689 32,32 z"
         sodipodi:ry="32"
         sodipodi:rx="32"
         sodipodi:cy="608"
         sodipodi:cx="96"
         id="path3800"
         style="opacity:0.54230766;fill:#ff00ff;fill-opacity:1;stroke:none"
         sodipodi:type="arc" />
      <text
         sodipodi:linespacing="125%"
         id="text3802"
         y="459.04398"
         x="19.843525"
         style="font-size:39.25842667px;font-style:normal;font-weight:normal;line-height:125%;letter-spacing:0px;word-spacing:0px;fill:#000000;fill-opacity:1;stroke:none;font-family:Sans"
         xml:space="preserve"><tspan
           y="459.04398"
           x="19.843525"
           id="tspan3804"
           sodipodi:role="line">Z</tspan></text>
    </g>
    <text
       xml:space="preserve"
       style="font-size:8.02182102px;font-style:normal;font-weight:normal;line-height:125%;letter-spacing:0px;word-spacing:0px;fill:#000000;fill-opacity:1;stroke:none;font-family:Sans"
       x="18.460617"
       y="387.42752"
       id="text3806"
       sodipodi:linespacing="125%"><tspan
         sodipodi:role="line"
         id="tspan3808"
         x="18.460617"
         y="387.42752"
         style="fill:#ffffff">bolter</tspan></text>
    <text
       sodipodi:linespacing="125%"
       id="text3810"
       y="387.42752"
       x="82.100227"
       style="font-size:8.02182102px;font-style:normal;font-weight:normal;line-height:125%;letter-spacing:0px;word-spacing:0px;fill:#000000;fill-opacity:1;stroke:none;font-family:Sans"
       xml:space="preserve"><tspan
         style="fill:#ffffff"
         y="387.42752"
         x="82.100227"
         id="tspan3812"
         sodipodi:role="line">rpg</tspan></text>
    <text
       xml:space="preserve"
       style="font-size:8.02182102px;font-style:normal;font-weight:normal;line-height:125%;letter-spacing:0px;word-spacing:0px;fill:#000000;fill-opacity:1;stroke:none;font-family:Sans"
       x="146.44695"
       y="387.42752"
       id="text3814"
       sodipodi:linespacing="125%"><tspan
         sodipodi:role="line"
         id="tspan3816"
         x="146.44695"
         y="387.42752"
         style="fill:#ffffff">Vulcan</tspan></text>
    <text
       sodipodi:linespacing="125%"
       id="text3818"
       y="387.42752"
       x="204.42969"
       style="font-size:8.02182102px;font-style:normal;font-weight:normal;line-height:125%;letter-spacing:0px;word-spacing:0px;fill:#000000;fill-opacity:1;stroke:none;font-family:Sans"
       xml:space="preserve"><tspan
         style="fill:#ffffff"
         y="387.42752"
         x="204.42969"
         id="tspan3820"
         sodipodi:role="line">Grenades</tspan></text>
    <text
       xml:space="preserve"
       style="font-size:8.02182102px;font-style:normal;font-weight:normal;line-height:125%;letter-spacing:0px;word-spacing:0px;fill:#000000;fill-opacity:1;stroke:none;font-family:Sans"
       x="269.48352"
       y="387.42752"
       id="text3822"
       sodipodi:linespacing="125%"><tspan
         sodipodi:role="line"
         id="tspan3824"
         x="269.48352"
         y="387.42752"
         style="fill:#ffffff">Shotgun</tspan></text>
    <text
       sodipodi:linespacing="125%"
       id="text3826"
       y="387.42752"
       x="336.65866"
       style="font-size:8.02182102px;font-style:normal;font-weight:normal;line-height:125%;letter-spacing:0px;word-spacing:0px;fill:#000000;fill-opacity:1;stroke:none;font-family:Sans"
       xml:space="preserve"><tspan
         style="fill:#ffffff"
         y="387.42752"
         x="336.65866"
         id="tspan3828"
         sodipodi:role="line">Razor</tspan></text>
    <text
       xml:space="preserve"
       style="font-size:8.02182102px;font-style:normal;font-weight:normal;line-height:125%;letter-spacing:0px;word-spacing:0px;fill:#000000;fill-opacity:1;stroke:none;font-family:Sans"
       x="400.29828"
       y="387.42752"
       id="text3830"
       sodipodi:linespacing="125%"><tspan
         sodipodi:role="line"
         id="tspan3832"
         x="400.29828"
         y="387.42752"
         style="fill:#ffffff">PewPew</tspan></text>
    <g
       id="g3834"
       transform="translate(381.83766,0)">
      <path
         sodipodi:type="arc"
         style="opacity:0.54230765999999997;fill:#ccff00;fill-opacity:1;stroke:none"
         id="path3836"
         sodipodi:cx="96"
         sodipodi:cy="608"
         sodipodi:rx="32"
         sodipodi:ry="32"
         d="m 128,608 c 0,17.67311 -14.32689,32 -32,32 -17.673112,0 -32,-14.32689 -32,-32 0,-17.67311 14.326888,-32 32,-32 17.67311,0 32,14.32689 32,32 z"
         transform="matrix(0.85636894,0,0,0.8618932,-48.090098,-79.138557)" />
      <text
         xml:space="preserve"
         style="font-size:39.25842667px;font-style:normal;font-weight:normal;line-height:125%;letter-spacing:0px;word-spacing:0px;fill:#000000;fill-opacity:1;stroke:none;font-family:Sans"
         x="14.893778"
         y="460.45819"
         id="text3838"
         sodipodi:linespacing="125%"><tspan
           sodipodi:role="line"
           id="tspan3840"
           x="14.893778"
           y="460.45819">W</tspan></text>
    </g>
    <g
       transform="translate(446.89148,0)"
       id="g3842">
      <path
         transform="matrix(0.85636894,0,0,0.8618932,-48.090098,-79.138557)"
         d="m 128,608 c 0,17.67311 -14.32689,32 -32,32 -17.673112,0 -32,-14.32689 -32,-32 0,-17.67311 14.326888,-32 32,-32 17.67311,0 32,14.32689 32,32 z"
         sodipodi:ry="32"
         sodipodi:rx="32"
         sodipodi:cy="608"
         sodipodi:cx="96"
         id="path3844"
         style="opacity:0.54230765999999997;fill:#6600ff;fill-opacity:1;stroke:none"
         sodipodi:type="arc" />
      <text
         sodipodi:linespacing="125%"
         id="text3846"
         y="460.45819"
         x="17.015099"
         style="font-size:39.25842667px;font-style:normal;font-weight:normal;line-height:125%;letter-spacing:0px;word-spacing:0px;fill:#000000;fill-opacity:1;stroke:none;font-family:Sans"
         xml:space="preserve"><tspan
           y="460.45819"
           x="17.015099"
           id="tspan3848"
           sodipodi:role="line">M</tspan></text>
    </g>
    <text
       sodipodi:linespacing="125%"
       id="text3850"
       y="387.42752"
       x="463.23077"
       style="font-size:8.02182102px;font-style:normal;font-weight:normal;line-height:125%;letter-spacing:0px;word-spacing:0px;fill:#000000;fill-opacity:1;stroke:none;font-family:Sans"
       xml:space="preserve"><tspan
         style="fill:#ffffff"
         y="387.42752"
         x="463.23077"
         id="tspan3852"
         sodipodi:role="line">Mines</tspan></text>
    <g
       id="g3854"
       transform="translate(0,62.932504)">
      <path
         sodipodi:type="arc"
         style="opacity:0.54230766;fill:#ce0000;fill-opacity:1;stroke:none"
         id="path3856"
         sodipodi:cx="96"
         sodipodi:cy="608"
         sodipodi:rx="32"
         sodipodi:ry="32"
         d="m 128,608 a 32,32 0 1 1 -64,0 32,32 0 1 1 64,0 z"
         transform="matrix(0.5912039,0,0,0.59501763,-24.755574,83.121788)" />
      <text
         xml:space="preserve"
         style="font-size:40px;font-style:normal;font-weight:normal;line-height:125%;letter-spacing:0px;word-spacing:0px;fill:#000000;fill-opacity:1;stroke:none;font-family:Sans"
         x="18.738331"
         y="459.8067"
         id="text3858"
         sodipodi:linespacing="125%"><tspan
           sodipodi:role="line"
           id="tspan3860"
           x="18.738331"
           y="459.8067">B</tspan></text>
    </g>
    <g
       transform="translate(62.932504,62.932504)"
       id="g3862">
      <path
         transform="matrix(0.65749516,0,0,0.66173652,-31.119535,42.556702)"
         d="m 128,608 a 32,32 0 1 1 -64,0 32,32 0 1 1 64,0 z"
         sodipodi:ry="32"
         sodipodi:rx="32"
         sodipodi:cy="608"
         sodipodi:cx="96"
         id="path3864"
         style="opacity:0.54230766;fill:#00ff00;fill-opacity:1;stroke:none"
         sodipodi:type="arc" />
      <text
         sodipodi:linespacing="125%"
         id="text3866"
         y="459.8067"
         x="18.738331"
         style="font-size:40px;font-style:normal;font-weight:normal;line-height:125%;letter-spacing:0px;word-spacing:0px;fill:#000000;fill-opacity:1;stroke:none;font-family:Sans"
         xml:space="preserve"><tspan
           y="459.8067"
           x="18.738331"
           id="tspan3868"
           sodipodi:role="line">R</tspan></text>
    </g>
    <g
       id="g3870"
       transform="translate(127.98633,62.932504)">
      <path
         sodipodi:type="arc"
         style="opacity:0.54230766;fill:#00ffff;fill-opacity:1;stroke:none"
         id="path3872"
         sodipodi:cx="96"
         sodipodi:cy="608"
         sodipodi:rx="32"
         sodipodi:ry="32"
         d="m 128,608 a 32,32 0 1 1 -64,0 32,32 0 1 1 64,0 z"
         transform="matrix(0.61330098,0,0,0.61725726,-26.876894,69.600093)" />
      <text
         xml:space="preserve"
         style="font-size:37.92961121px;font-style:normal;font-weight:normal;line-height:125%;letter-spacing:0px;word-spacing:0px;fill:#000000;fill-opacity:1;stroke:none;font-family:Sans"
         x="19.048857"
         y="459.62585"
         id="text3874"
         sodipodi:linespacing="125%"><tspan
           sodipodi:role="line"
           id="tspan3876"
           x="19.048857"
           y="459.62585">V</tspan></text>
    </g>
    <g
       id="g3878"
       transform="translate(192.33304,62.932504)">
      <path
         sodipodi:type="arc"
         style="opacity:0.54230766;fill:#0000ff;fill-opacity:1;stroke:none"
         id="path3880"
         sodipodi:cx="96"
         sodipodi:cy="608"
         sodipodi:rx="32"
         sodipodi:ry="32"
         d="m 128,608 a 32,32 0 1 1 -64,0 32,32 0 1 1 64,0 z"
         transform="matrix(0.65749516,0,0,0.66173652,-31.119535,42.556702)" />
      <text
         xml:space="preserve"
         style="font-size:40px;font-style:normal;font-weight:normal;line-height:125%;letter-spacing:0px;word-spacing:0px;fill:#000000;fill-opacity:1;stroke:none;font-family:Sans"
         x="15.202797"
         y="459.8067"
         id="text3882"
         sodipodi:linespacing="125%"><tspan
           sodipodi:role="line"
           id="tspan3884"
           x="15.202797"
           y="459.8067">G</tspan></text>
    </g>
    <g
       transform="translate(254.55844,62.932504)"
       id="g3886">
      <path
         transform="matrix(0.61330098,0,0,0.61725726,-24.755574,69.600093)"
         d="m 128,608 a 32,32 0 1 1 -64,0 32,32 0 1 1 64,0 z"
         sodipodi:ry="32"
         sodipodi:rx="32"
         sodipodi:cy="608"
         sodipodi:cx="96"
         id="path3888"
         style="opacity:0.54230766;fill:#ff6600;fill-opacity:1;stroke:none"
         sodipodi:type="arc" />
      <text
         sodipodi:linespacing="125%"
         id="text3890"
         y="458.42667"
         x="21.725952"
         style="font-size:37.58497238px;font-style:normal;font-weight:normal;line-height:125%;letter-spacing:0px;word-spacing:0px;fill:#000000;fill-opacity:1;stroke:none;font-family:Sans"
         xml:space="preserve"><tspan
           y="458.42667"
           x="21.725952"
           id="tspan3892"
           sodipodi:role="line">S</tspan></text>
    </g>
    <g
       id="g3894"
       transform="translate(318.19805,62.932504)">
      <path
         sodipodi:type="arc"
         style="opacity:0.54230766;fill:#ff00ff;fill-opacity:1;stroke:none"
         id="path3896"
         sodipodi:cx="96"
         sodipodi:cy="608"
         sodipodi:rx="32"
         sodipodi:ry="32"
         d="m 128,608 a 32,32 0 1 1 -64,0 32,32 0 1 1 64,0 z"
         transform="matrix(0.63539807,0,0,0.63949689,-26.876895,56.078398)" />
      <text
         xml:space="preserve"
         style="font-size:39.25842667px;font-style:normal;font-weight:normal;line-height:125%;letter-spacing:0px;word-spacing:0px;fill:#000000;fill-opacity:1;stroke:none;font-family:Sans"
         x="19.843525"
         y="459.04398"
         id="text3898"
         sodipodi:linespacing="125%"><tspan
           sodipodi:role="line"
           id="tspan3900"
           x="19.843525"
           y="459.04398">Z</tspan></text>
    </g>
    <g
       transform="translate(381.83766,62.932504)"
       id="g3902">
      <path
         transform="matrix(0.65749516,0,0,0.66173652,-28.998215,42.556702)"
         d="m 128,608 a 32,32 0 1 1 -64,0 32,32 0 1 1 64,0 z"
         sodipodi:ry="32"
         sodipodi:rx="32"
         sodipodi:cy="608"
         sodipodi:cx="96"
         id="path3904"
         style="opacity:0.54230766;fill:#ccff00;fill-opacity:1;stroke:none"
         sodipodi:type="arc" />
      <text
         sodipodi:linespacing="125%"
         id="text3906"
         y="460.45819"
         x="14.893778"
         style="font-size:39.25842667px;font-style:normal;font-weight:normal;line-height:125%;letter-spacing:0px;word-spacing:0px;fill:#000000;fill-opacity:1;stroke:none;font-family:Sans"
         xml:space="preserve"><tspan
           y="460.45819"
           x="14.893778"
           id="tspan3908"
           sodipodi:role="line">W</tspan></text>
    </g>
    <g
       id="g3910"
       transform="translate(446.89148,62.932504)">
      <path
         sodipodi:type="arc"
         style="opacity:0.54230766;fill:#6600ff;fill-opacity:1;stroke:none"
         id="path3912"
         sodipodi:cx="96"
         sodipodi:cy="608"
         sodipodi:rx="32"
         sodipodi:ry="32"
         d="m 128,608 a 32,32 0 1 1 -64,0 32,32 0 1 1 64,0 z"
         transform="matrix(0.63539807,0,0,0.63949689,-26.876895,56.078398)" />
      <text
         xml:space="preserve"
         style="font-size:39.25842667px;font-style:normal;font-weight:normal;line-height:125%;letter-spacing:0px;word-spacing:0px;fill:#000000;fill-opacity:1;stroke:none;font-family:Sans"
         x="17.015099"
         y="460.45819"
         id="text3914"
         sodipodi:linespacing="125%"><tspan
           sodipodi:role="line"
           id="tspan3916"
           x="17.015099"
           y="460.45819">M</tspan></text>
    </g>
    <g
       id="g3924"
       inkscape:transform-center-y="9.8994949"
       transform="translate(0,-2.1213203)">
      <rect
         style="opacity:0.54230766;fill:#87cdde;fill-opacity:1;stroke:none"
         id="rect3955"
         width="37.254833"
         height="37.254833"
         x="-593.6925"
         y="14.606588"
         transform="matrix(0,-1,1,0,0,0)" />
      <rect
         transform="matrix(0.70710678,-0.70710678,0.70710678,0.70710678,0,0)"
         y="411.505"
         x="-401.75986"
         height="37.254833"
         width="37.254833"
         id="rect3918"
         style="opacity:0.54230766;fill:#87cdde;fill-opacity:1;stroke:none" />
      <text
         sodipodi:linespacing="125%"
         id="text3920"
         y="586.37878"
         x="20.595137"
         style="font-size:32.24029541px;font-style:normal;font-weight:normal;line-height:125%;letter-spacing:0px;word-spacing:0px;fill:#000000;fill-opacity:1;stroke:none;font-family:Sans"
         xml:space="preserve"><tspan
           y="586.37878"
           x="20.595137"
           id="tspan3922"
           sodipodi:role="line">H</tspan></text>
    </g>
    <g
       transform="translate(63.63961,-2.1213203)"
       inkscape:transform-center-y="9.8994949"
       id="g3929">
      <rect
         style="opacity:0.54230766;fill:#ffcc00;fill-opacity:1;stroke:none"
         id="rect3931"
         width="37.254833"
         height="37.254833"
         x="-401.75986"
         y="411.505"
         transform="matrix(0.70710678,-0.70710678,0.70710678,0.70710678,0,0)" />
      <text
         xml:space="preserve"
         style="font-size:32.24029541px;font-style:normal;font-weight:normal;line-height:125%;letter-spacing:0px;word-spacing:0px;fill:#000000;fill-opacity:1;stroke:none;font-family:Sans"
         x="21.302244"
         y="585.67169"
         id="text3933"
         sodipodi:linespacing="125%"><tspan
           sodipodi:role="line"
           id="tspan3935"
           x="21.302244"
           y="585.67169">A</tspan></text>
    </g>
    <g
       id="g3937"
       inkscape:transform-center-y="9.8994949"
       transform="translate(63.63961,66.468037)">
      <rect
         transform="matrix(0.70710678,-0.70710678,0.70710678,0.70710678,0,0)"
         y="416.005"
         x="-397.25986"
         height="28.254833"
         width="28.254833"
         id="rect3939"
         style="opacity:0.54230766;fill:#ffcc00;fill-opacity:1;stroke:none" />
      <text
         sodipodi:linespacing="125%"
         id="text3941"
         y="585.67169"
         x="21.302244"
         style="font-size:32.24029541px;font-style:normal;font-weight:normal;line-height:125%;letter-spacing:0px;word-spacing:0px;fill:#000000;fill-opacity:1;stroke:none;font-family:Sans"
         xml:space="preserve"><tspan
           y="585.67169"
           x="21.302244"
           id="tspan3943"
           sodipodi:role="line">A</tspan></text>
    </g>
    <g
       transform="translate(0,63.63961)"
       inkscape:transform-center-y="9.8994949"
       id="g3945">
      <rect
         style="opacity:0.54230766;fill:#87cdde;fill-opacity:1;stroke:none"
         id="rect3947"
         width="37.254833"
         height="37.254833"
         x="-401.75986"
         y="411.505"
         transform="matrix(0.70710678,-0.70710678,0.70710678,0.70710678,0,0)" />
      <text
         xml:space="preserve"
         style="font-size:32.24029541px;font-style:normal;font-weight:normal;line-height:125%;letter-spacing:0px;word-spacing:0px;fill:#000000;fill-opacity:1;stroke:none;font-family:Sans"
         x="20.595137"
         y="586.37878"
         id="text3949"
         sodipodi:linespacing="125%"><tspan
           sodipodi:role="line"
           id="tspan3951"
           x="20.595137"
           y="586.37878">H</tspan></text>
    </g>
    <path
       sodipodi:type="star"
       style="opacity:0.54230765999999997;fill:#00ffcc;fill-opacity:1;stroke:none"
       id="path3957"
       sodipodi:sides="5"
       sodipodi:cx="159.09903"
       sodipodi:cy="161.28871"
       sodipodi:r1="27.865749"
       sodipodi:r2="18.213276"
       sodipodi:arg1="0.52359878"
       sodipodi:arg2="1.218766"
       inkscape:flatsided="false"
       inkscape:rounded="0"
       inkscape:randomized="0"
       d="m 183.23148,175.22159 -17.85243,3.16346 -12.07364,10.16048 -8.52533,-16.00111 -13.39415,-8.34294 12.58348,-13.0527 3.7956,-15.3167 16.30236,7.9341 15.73995,-1.12329 -2.50807,17.95623 z"
       transform="matrix(0.90464617,0.42616347,-0.42616347,0.90464617,86.24025,359.37407)" />
    <text
       xml:space="preserve"
       style="font-size:31.88254166px;font-style:normal;font-weight:normal;line-height:125%;letter-spacing:0px;word-spacing:0px;fill:#000000;fill-opacity:1;stroke:none;font-family:Sans"
       x="149.56577"
       y="584.5968"
       id="text3959"
       sodipodi:linespacing="125%"><tspan
         sodipodi:role="line"
         id="tspan3961"
         x="149.56577"
         y="584.5968">Q</tspan></text>
    <path
       transform="matrix(0.90464617,0.42616347,-0.42616347,0.90464617,147.75854,359.37407)"
       d="m 183.23148,175.22159 -17.85243,3.16346 -12.07364,10.16048 -8.52533,-16.00111 -13.39415,-8.34294 12.58348,-13.0527 3.7956,-15.3167 16.30236,7.9341 15.73995,-1.12329 -2.50807,17.95623 z"
       inkscape:randomized="0"
       inkscape:rounded="0"
       inkscape:flatsided="false"
       sodipodi:arg2="1.218766"
       sodipodi:arg1="0.52359878"
       sodipodi:r2="18.213276"
       sodipodi:r1="27.865749"
       sodipodi:cy="161.28871"
       sodipodi:cx="159.09903"
       sodipodi:sides="5"
       id="path3963"
       style="opacity:0.54230765999999997;fill:#0000ff;fill-opacity:1;stroke:none"
       sodipodi:type="star" />
    <text
       sodipodi:linespacing="125%"
       id="text3965"
       y="584.5968"
       x="211.08406"
       style="font-size:31.88254166px;font-style:normal;font-weight:normal;line-height:125%;letter-spacing:0px;word-spacing:0px;fill:#000000;fill-opacity:1;stroke:none;font-family:Sans"
       xml:space="preserve"><tspan
         y="584.5968"
         x="211.08406"
         id="tspan3967"
         sodipodi:role="line">X</tspan></text>
    <path
       sodipodi:type="star"
       style="opacity:0.54230766;fill:#0000ff;fill-opacity:1;stroke:none"
       id="path3969"
       sodipodi:sides="8"
       sodipodi:cx="159.09903"
       sodipodi:cy="161.28871"
       sodipodi:r1="27.865749"
       sodipodi:r2="17.047684"
       sodipodi:arg1="0.52359878"
       sodipodi:arg2="0.72658597"
       inkscape:flatsided="false"
       inkscape:rounded="0"
       inkscape:randomized="0"
       d="m 183.23148,175.22159 -11.39021,-2.60773 -5.53005,15.5911 -6.21016,-9.89804 -14.93491,7.11424 2.60773,-11.39021 -15.5911,-5.53005 9.89804,-6.21015 -7.11424,-14.93491 11.39021,2.60773 5.53005,-15.59111 6.21016,9.89804 14.9349,-7.11424 -2.60772,11.39022 15.5911,5.53005 -9.89804,6.21015 z"
       transform="matrix(0.90464617,0.42616347,-0.42616347,0.90464617,209.98394,359.37407)" />
    <text
       xml:space="preserve"
       style="font-size:31.88254166px;font-style:normal;font-weight:normal;line-height:125%;letter-spacing:0px;word-spacing:0px;fill:#000000;fill-opacity:1;stroke:none;font-family:Sans"
       x="275.43076"
       y="584.5968"
       id="text3971"
       sodipodi:linespacing="125%"><tspan
         sodipodi:role="line"
         id="tspan3973"
         x="275.43076"
         y="584.5968">F</tspan></text>
    <path
       transform="matrix(0.90464617,0.42616347,-0.42616347,0.90464617,277.15908,359.37407)"
       d="m 183.23148,175.22159 -11.39021,-2.60773 -5.53005,15.5911 -6.21016,-9.89804 -14.93491,7.11424 2.60773,-11.39021 -15.5911,-5.53005 9.89804,-6.21015 -7.11424,-14.93491 11.39021,2.60773 5.53005,-15.59111 6.21016,9.89804 14.9349,-7.11424 -2.60772,11.39022 15.5911,5.53005 -9.89804,6.21015 z"
       inkscape:randomized="0"
       inkscape:rounded="0"
       inkscape:flatsided="false"
       sodipodi:arg2="0.72658597"
       sodipodi:arg1="0.52359878"
       sodipodi:r2="17.047684"
       sodipodi:r1="27.865749"
       sodipodi:cy="161.28871"
       sodipodi:cx="159.09903"
       sodipodi:sides="8"
       id="path3975"
       style="opacity:0.54230765999999997;fill:#ff0000;fill-opacity:1;stroke:none"
       sodipodi:type="star" />
    <text
       sodipodi:linespacing="125%"
       id="text3977"
       y="584.5968"
       x="342.6059"
       style="font-size:31.88254166px;font-style:normal;font-weight:normal;line-height:125%;letter-spacing:0px;word-spacing:0px;fill:#000000;fill-opacity:1;stroke:none;font-family:Sans"
       xml:space="preserve"><tspan
         y="584.5968"
         x="342.6059"
         id="tspan3979"
         sodipodi:role="line">F</tspan></text>
  </g>
</svg>
